<svg xmlns="http://www.w3.org/2000/svg" viewBox="0 0 64 64" aria-labelledby="title"
aria-describedby="desc" role="img" xmlns:xlink="http://www.w3.org/1999/xlink">
  <title>Sad Emoji</title>
  <desc>A solid styled icon from Orion Icon Library.</desc>
  <path data-name="layer1"
  d="M32 2a30 30 0 1 0 30 30A30 30 0 0 0 32 2zm10 20a4 4 0 1 1-4 4 4 4 0 0 1 4-4zm-20 0a4 4 0 1 1-4 4 4 4 0 0 1 4-4zm25.2 27.7a2 2 0 0 1-2.8-.2 16.5 16.5 0 0 0-24.7 0 2 2 0 1 1-3-2.7 20.5 20.5 0 0 1 30.7 0 2 2 0 0 1-.2 2.9z"
  fill="#202020"></path>
</svg>